<svg width="1440" height="672" viewBox="0 0 1440 672" fill="none" xmlns="http://www.w3.org/2000/svg">
<mask id="mask0_3501_8165" style="mask-type:alpha" maskUnits="userSpaceOnUse" x="0" y="0" width="1440" height="672">
<rect width="1440" height="671.111" fill="white"/>
</mask>
<g mask="url(#mask0_3501_8165)">
<path opacity="0.2" d="M53.3333 926.666V2.22209M106.667 926.666L106.667 2.22209M160 926.666V2.22209M213.334 926.666V2.22209M266.667 926.666V2.22209M320 926.666V2.22209M373.334 926.666V2.22209M426.667 926.666V2.22209M480.001 926.666V2.22209M533.334 926.666V2.22209M586.667 926.666V2.22209M640.001 926.666V2.22209M693.334 926.666V2.22209M746.668 926.666V2.22209M800.001 926.666V2.22209M853.334 926.666V2.22209M906.668 926.666V2.22209M960.001 926.666V2.22209M1013.33 926.666V2.22209M1066.67 926.666V2.22209M1120 926.666V2.22209M1173.33 926.666V2.22209M1226.67 926.666V2.22209M1280 926.666V2.22209M1333.34 926.666V2.22209M1386.67 926.666V2.22209M1440 926.666V2.22209M1440 906.666H0M1440 853.333H0M1440 800H0M1440 746.667H0M1440 693.333H0M1440 640H0M1440 586.667H0M1440 533.333H0M1440 480H0M1440 426.667H0M1440 373.333H0M1440 320H0M1440 266.667H0M1440 213.333H0M1440 160H0M1440 106.667H0M1440 53.3335H0M1440 0H0" stroke="white"/>
<path d="M1280 100L1280 145.556" stroke="url(#paint0_linear_3501_8165)" stroke-width="2" stroke-linecap="round"/>
<rect opacity="0.4" width="1440" height="1070" fill="url(#paint1_radial_3501_8165)"/>
<path d="M266.667 214.445L266.667 266.667" stroke="url(#paint2_linear_3501_8165)" stroke-width="2" stroke-linecap="round"/>
</g>
<defs>
<linearGradient id="paint0_linear_3501_8165" x1="1280" y1="100" x2="1280" y2="145.556" gradientUnits="userSpaceOnUse">
<stop stop-color="white"/>
<stop offset="1" stop-color="white" stop-opacity="0"/>
</linearGradient>
<radialGradient id="paint1_radial_3501_8165" cx="0" cy="0" r="1" gradientUnits="userSpaceOnUse" gradientTransform="translate(708.889 204.444) rotate(0.348299) scale(731.125 458.31)">
<stop stop-color="#6F4D70"/>
<stop offset="1" stop-color="#161B32"/>
</radialGradient>
<linearGradient id="paint2_linear_3501_8165" x1="266.667" y1="214.445" x2="266.667" y2="266.667" gradientUnits="userSpaceOnUse">
<stop stop-color="white"/>
<stop offset="1" stop-color="white" stop-opacity="0"/>
</linearGradient>
</defs>
</svg>
