<svg width="97" height="16" viewBox="0 0 97 16" fill="none" xmlns="http://www.w3.org/2000/svg">
    <path
        d="M10.7712 11.7433C10.6088 11.9057 10.4731 12.0362 10.4731 12.0362L10.4744 12.0368C10.472 12.0359 10.3384 12.1675 10.1763 12.3297L8.6995 13.8065C8.53707 13.9689 8.53707 14.2344 8.6995 14.3968L10.1809 15.8782C10.3433 16.0406 10.6088 16.0406 10.7712 15.8782L20.8289 5.81848C20.9913 5.65606 20.9913 5.39057 20.8289 5.22815L15.8956 0.294838C15.7332 0.132416 15.4123 0 15.1827 0L5.76352 0.00391377C5.53391 0.00391377 5.21298 0.136982 5.05056 0.299404L0.121816 5.2288C-0.0406054 5.39122 -0.0406054 5.65671 0.121816 5.81913L6.04074 11.7381C6.20316 11.9005 6.46865 11.9005 6.63107 11.7381L8.10786 10.2613C8.27029 10.0988 8.27029 9.83336 8.10786 9.67094L4.25606 5.81913C4.09364 5.65671 4.09364 5.39122 4.25606 5.2288L6.26252 3.22299C6.42494 3.06057 6.74587 2.9275 6.97548 2.9275L13.9726 2.92424C14.2023 2.92359 14.5232 3.05666 14.6856 3.21908L16.6953 5.2288C16.8577 5.39122 16.8577 5.65671 16.6953 5.81913L10.7712 11.7433Z"
        fill="white"></path>
    <path fill-rule="evenodd" clip-rule="evenodd"
        d="M29.9919 4.79569C27.0272 4.79569 25.2399 7.1283 25.2399 9.96187C25.2399 12.7517 27.0494 15.1489 29.9919 15.1489C31.1908 15.1489 32.1497 14.7347 32.8692 13.9285V14.4516C32.8692 14.8006 33.0434 14.9748 33.3923 14.9748H35.0707C35.4197 14.9748 35.5938 14.8006 35.5938 14.4516V1.33004C35.5938 0.981062 35.4197 0.806899 35.0707 0.806899H33.3923C33.0434 0.806899 32.8692 0.981062 32.8692 1.33004V6.01613C32.1497 5.2099 31.1908 4.79569 29.9919 4.79569ZM30.3846 7.34616C31.9103 7.34616 32.8692 8.47985 32.8692 9.96187C32.8692 11.4439 31.9103 12.5776 30.3846 12.5776C28.8589 12.5776 27.8778 11.4439 27.8778 9.96187C27.8778 8.47985 28.8589 7.34616 30.3846 7.34616Z"
        fill="white"></path>
    <path
        d="M37.9917 5.47141V11.0948C37.9917 13.5579 39.4091 15.1489 41.9159 15.1489C43.0926 15.1489 44.03 14.7784 44.7057 14.0589V14.5168C44.7057 14.8221 44.8799 14.9747 45.2289 14.9747H46.9072C47.2562 14.9747 47.4304 14.8005 47.4304 14.4516V5.47141C47.4304 5.12243 47.2562 4.94827 46.9072 4.94827H45.2289C44.8799 4.94827 44.7057 5.12243 44.7057 5.47141V10.6591C44.7057 11.9017 44.0737 12.8391 42.7436 12.8391C41.4136 12.8391 40.7163 11.9233 40.7163 10.6591V5.47141C40.7163 5.12243 40.5421 4.94827 40.1932 4.94827H38.5148C38.1658 4.94827 37.9917 5.12243 37.9917 5.47141Z"
        fill="white"></path>
    <path
        d="M50.3514 14.9747C50.0024 14.9747 49.8282 14.8005 49.8282 14.4516V5.4714C49.8282 5.12242 50.0024 4.94826 50.3514 4.94826H52.0297C52.3787 4.94826 52.5528 5.12242 52.5528 5.4714V6.75773C53.2502 5.64621 54.2534 4.99196 55.5391 4.83932C55.9096 4.79562 56.0837 4.96978 56.0837 5.34094V6.84513C56.0837 7.17193 55.9096 7.3461 55.5821 7.36828C53.5548 7.56462 52.5522 8.5672 52.5522 10.376V14.4522C52.5522 14.8012 52.378 14.9753 52.0291 14.9753H50.3507L50.3514 14.9747Z"
        fill="white"></path>
    <path fill-rule="evenodd" clip-rule="evenodd"
        d="M61.7737 4.79569C58.809 4.79569 57.0217 7.1283 57.0217 9.96187C57.0217 12.7517 58.8312 15.1489 61.7737 15.1489C62.9726 15.1489 63.9315 14.7347 64.651 13.9285V14.4516C64.651 14.8006 64.8258 14.9748 65.1741 14.9748H66.8525C67.2014 14.9748 67.3756 14.8006 67.3756 14.4516V5.47147C67.3756 5.12249 67.2008 4.94833 66.8525 4.94833H65.1741C64.8251 4.94833 64.651 5.12249 64.651 5.47147V6.01613C63.9315 5.2099 62.9726 4.79569 61.7737 4.79569ZM62.1664 7.34617C63.6921 7.34617 64.651 8.47986 64.651 9.96187C64.651 11.4439 63.6921 12.5776 62.1664 12.5776C60.6407 12.5776 59.6596 11.4439 59.6596 9.96187C59.6596 8.47986 60.6407 7.34617 62.1664 7.34617Z"
        fill="white"></path>
    <path fill-rule="evenodd" clip-rule="evenodd"
        d="M72.4981 13.9291V14.4516C72.4981 14.8006 72.3239 14.9748 71.9749 14.9748H70.2966C69.9476 14.9748 69.7734 14.8006 69.7734 14.4516V1.33004C69.7734 0.981062 69.9476 0.806899 70.2966 0.806899H71.9749C72.3239 0.806899 72.4981 0.981062 72.4981 1.33004V6.01613C73.2176 5.2099 74.1764 4.79569 75.3753 4.79569C78.34 4.79569 80.1273 7.12765 80.1273 9.96187C80.1273 12.7961 78.3178 15.1496 75.3753 15.1496C74.1764 15.1496 73.2176 14.7354 72.4981 13.9291ZM77.4894 9.96122C77.4894 8.4792 76.5084 7.34551 74.9827 7.34551C73.4569 7.34551 72.4981 8.4792 72.4981 9.96122C72.4981 11.4432 73.4576 12.5769 74.9827 12.5769C76.5077 12.5769 77.4894 11.4432 77.4894 9.96122Z"
        fill="white"></path>
    <path
        d="M82.154 14.4516C82.154 14.8006 82.3282 14.9748 82.6771 14.9748L84.3555 14.9754C84.7045 14.9754 84.8786 14.8013 84.8786 14.4523L84.9002 1.33004C84.9002 0.981062 84.726 0.806899 84.377 0.806899H82.6771C82.3282 0.806899 82.154 0.981062 82.154 1.33004V14.4516Z"
        fill="white"></path>
    <path fill-rule="evenodd" clip-rule="evenodd"
        d="M86.9281 9.96194C86.9281 6.97573 88.8681 4.7527 91.9195 4.7527C94.9709 4.7527 96.7367 7.01943 96.7367 9.96194V10.1798C96.7367 10.5281 96.5625 10.7029 96.2136 10.7029H89.5439C89.8054 12.0323 90.7643 12.8607 92.0284 12.8607C92.8569 12.8607 93.5326 12.6207 94.0773 12.1413C94.2078 12.0108 94.3389 11.9671 94.4915 11.9671C94.5789 11.9671 94.6879 11.9886 94.7968 12.076L95.8209 12.8392C95.9951 12.9703 96.0825 13.1008 96.0825 13.2534C96.0825 13.3408 96.0387 13.4276 95.9735 13.515C95.0146 14.6265 93.7068 15.1933 92.0284 15.1933C88.977 15.1933 86.9281 12.9703 86.9281 9.96194ZM94.1869 8.98088C93.9031 7.67303 93.0754 6.90984 91.9202 6.90984C90.7649 6.90984 89.8491 7.67303 89.5882 8.98088H94.1869Z"
        fill="white"></path>
</svg>